<mxfile host="Electron" modified="2023-12-19T14:38:35.210Z" agent="Mozilla/5.0 (Windows NT 10.0; Win64; x64) AppleWebKit/537.36 (KHTML, like Gecko) draw.io/22.1.11 Chrome/114.0.5735.289 Electron/25.9.8 Safari/537.36" etag="MO-v3ay5OBcf00isWIei" version="22.1.11" type="device">
  <diagram id="R2lEEEUBdFMjLlhIrx00" name="Page-1">
    <mxGraphModel dx="3434" dy="1644" grid="1" gridSize="10" guides="1" tooltips="1" connect="1" arrows="1" fold="1" page="0" pageScale="1" pageWidth="850" pageHeight="1100" math="0" shadow="0" extFonts="Permanent Marker^https://fonts.googleapis.com/css?family=Permanent+Marker">
      <root>
        <mxCell id="0" />
        <mxCell id="1" parent="0" />
        <mxCell id="iZH9orXoYxp4sXHzWfzY-1" value="Utente" style="whiteSpace=wrap;html=1;align=center;" parent="1" vertex="1">
          <mxGeometry x="-1410" y="-370" width="100" height="40" as="geometry" />
        </mxCell>
        <mxCell id="iZH9orXoYxp4sXHzWfzY-3" value="Chat" style="whiteSpace=wrap;html=1;align=center;" parent="1" vertex="1">
          <mxGeometry x="-890" y="-370" width="100" height="40" as="geometry" />
        </mxCell>
        <mxCell id="iZH9orXoYxp4sXHzWfzY-4" value="Messaggio" style="whiteSpace=wrap;html=1;align=center;" parent="1" vertex="1">
          <mxGeometry x="-1130" y="-140" width="100" height="40" as="geometry" />
        </mxCell>
        <mxCell id="iZH9orXoYxp4sXHzWfzY-5" value="Visualizzato&lt;br&gt;da" style="shape=rhombus;perimeter=rhombusPerimeter;whiteSpace=wrap;html=1;align=center;" parent="1" vertex="1">
          <mxGeometry x="-1420" y="-150" width="120" height="60" as="geometry" />
        </mxCell>
        <mxCell id="iZH9orXoYxp4sXHzWfzY-6" value="Conversa&lt;br&gt;in" style="shape=rhombus;perimeter=rhombusPerimeter;whiteSpace=wrap;html=1;align=center;" parent="1" vertex="1">
          <mxGeometry x="-1140" y="-380" width="120" height="60" as="geometry" />
        </mxCell>
        <mxCell id="iZH9orXoYxp4sXHzWfzY-7" value="Contiene" style="shape=rhombus;perimeter=rhombusPerimeter;whiteSpace=wrap;html=1;align=center;" parent="1" vertex="1">
          <mxGeometry x="-900" y="-150" width="120" height="60" as="geometry" />
        </mxCell>
        <mxCell id="iZH9orXoYxp4sXHzWfzY-9" value="" style="endArrow=none;html=1;rounded=0;exitX=1;exitY=0.5;exitDx=0;exitDy=0;entryX=0;entryY=0.5;entryDx=0;entryDy=0;" parent="1" source="iZH9orXoYxp4sXHzWfzY-1" target="iZH9orXoYxp4sXHzWfzY-6" edge="1">
          <mxGeometry relative="1" as="geometry">
            <mxPoint x="-1300" y="-280" as="sourcePoint" />
            <mxPoint x="-1140" y="-280" as="targetPoint" />
          </mxGeometry>
        </mxCell>
        <mxCell id="iZH9orXoYxp4sXHzWfzY-10" value="(1,1)" style="resizable=0;html=1;whiteSpace=wrap;align=left;verticalAlign=bottom;" parent="iZH9orXoYxp4sXHzWfzY-9" connectable="0" vertex="1">
          <mxGeometry x="-1" relative="1" as="geometry" />
        </mxCell>
        <mxCell id="iZH9orXoYxp4sXHzWfzY-13" value="" style="endArrow=none;html=1;rounded=0;exitX=0.5;exitY=1;exitDx=0;exitDy=0;entryX=0.5;entryY=0;entryDx=0;entryDy=0;" parent="1" source="iZH9orXoYxp4sXHzWfzY-1" target="iZH9orXoYxp4sXHzWfzY-5" edge="1">
          <mxGeometry relative="1" as="geometry">
            <mxPoint x="-1390" y="-220" as="sourcePoint" />
            <mxPoint x="-1230" y="-220" as="targetPoint" />
          </mxGeometry>
        </mxCell>
        <mxCell id="iZH9orXoYxp4sXHzWfzY-14" value="(0,1)" style="resizable=0;html=1;whiteSpace=wrap;align=left;verticalAlign=bottom;" parent="iZH9orXoYxp4sXHzWfzY-13" connectable="0" vertex="1">
          <mxGeometry x="-1" relative="1" as="geometry">
            <mxPoint y="20" as="offset" />
          </mxGeometry>
        </mxCell>
        <mxCell id="iZH9orXoYxp4sXHzWfzY-18" value="" style="endArrow=none;html=1;rounded=0;exitX=1;exitY=0.5;exitDx=0;exitDy=0;entryX=0;entryY=0.5;entryDx=0;entryDy=0;" parent="1" source="iZH9orXoYxp4sXHzWfzY-5" target="iZH9orXoYxp4sXHzWfzY-4" edge="1">
          <mxGeometry relative="1" as="geometry">
            <mxPoint x="-1280" y="-150" as="sourcePoint" />
            <mxPoint x="-1120" y="-150" as="targetPoint" />
          </mxGeometry>
        </mxCell>
        <mxCell id="iZH9orXoYxp4sXHzWfzY-20" value="(0,N)" style="resizable=0;html=1;whiteSpace=wrap;align=right;verticalAlign=bottom;" parent="iZH9orXoYxp4sXHzWfzY-18" connectable="0" vertex="1">
          <mxGeometry x="1" relative="1" as="geometry" />
        </mxCell>
        <mxCell id="iZH9orXoYxp4sXHzWfzY-21" value="" style="endArrow=none;html=1;rounded=0;exitX=1;exitY=0.5;exitDx=0;exitDy=0;entryX=0;entryY=0.5;entryDx=0;entryDy=0;" parent="1" source="iZH9orXoYxp4sXHzWfzY-4" target="iZH9orXoYxp4sXHzWfzY-7" edge="1">
          <mxGeometry relative="1" as="geometry">
            <mxPoint x="-1010" y="-60" as="sourcePoint" />
            <mxPoint x="-850" y="-60" as="targetPoint" />
          </mxGeometry>
        </mxCell>
        <mxCell id="iZH9orXoYxp4sXHzWfzY-22" value="(0,N)" style="resizable=0;html=1;whiteSpace=wrap;align=left;verticalAlign=bottom;" parent="iZH9orXoYxp4sXHzWfzY-21" connectable="0" vertex="1">
          <mxGeometry x="-1" relative="1" as="geometry" />
        </mxCell>
        <mxCell id="iZH9orXoYxp4sXHzWfzY-24" value="" style="endArrow=none;html=1;rounded=0;exitX=0.5;exitY=0;exitDx=0;exitDy=0;entryX=0.5;entryY=1;entryDx=0;entryDy=0;" parent="1" source="iZH9orXoYxp4sXHzWfzY-7" target="iZH9orXoYxp4sXHzWfzY-3" edge="1">
          <mxGeometry relative="1" as="geometry">
            <mxPoint x="-910" y="-230" as="sourcePoint" />
            <mxPoint x="-750" y="-230" as="targetPoint" />
          </mxGeometry>
        </mxCell>
        <mxCell id="iZH9orXoYxp4sXHzWfzY-26" value="(1,1)" style="resizable=0;html=1;whiteSpace=wrap;align=right;verticalAlign=bottom;" parent="iZH9orXoYxp4sXHzWfzY-24" connectable="0" vertex="1">
          <mxGeometry x="1" relative="1" as="geometry">
            <mxPoint y="20" as="offset" />
          </mxGeometry>
        </mxCell>
        <mxCell id="iZH9orXoYxp4sXHzWfzY-27" value="" style="endArrow=none;html=1;rounded=0;exitX=1;exitY=0.5;exitDx=0;exitDy=0;entryX=0;entryY=0.5;entryDx=0;entryDy=0;" parent="1" source="iZH9orXoYxp4sXHzWfzY-6" target="iZH9orXoYxp4sXHzWfzY-3" edge="1">
          <mxGeometry relative="1" as="geometry">
            <mxPoint x="-1030" y="-310" as="sourcePoint" />
            <mxPoint x="-870" y="-310" as="targetPoint" />
          </mxGeometry>
        </mxCell>
        <mxCell id="iZH9orXoYxp4sXHzWfzY-29" value="(0,N)" style="resizable=0;html=1;whiteSpace=wrap;align=right;verticalAlign=bottom;" parent="iZH9orXoYxp4sXHzWfzY-27" connectable="0" vertex="1">
          <mxGeometry x="1" relative="1" as="geometry" />
        </mxCell>
        <mxCell id="iZH9orXoYxp4sXHzWfzY-33" value="oraVisualizzazione" style="ellipse;whiteSpace=wrap;html=1;align=center;" parent="1" vertex="1">
          <mxGeometry x="-1590" y="-140" width="130" height="40" as="geometry" />
        </mxCell>
        <mxCell id="iZH9orXoYxp4sXHzWfzY-36" value="" style="endArrow=none;html=1;rounded=0;exitDx=0;exitDy=0;entryX=0;entryY=0.5;entryDx=0;entryDy=0;" parent="1" target="iZH9orXoYxp4sXHzWfzY-5" edge="1">
          <mxGeometry relative="1" as="geometry">
            <mxPoint x="-1460" y="-120" as="sourcePoint" />
            <mxPoint x="-1350" y="-30" as="targetPoint" />
          </mxGeometry>
        </mxCell>
        <mxCell id="iZH9orXoYxp4sXHzWfzY-38" value="" style="endArrow=none;html=1;rounded=0;exitX=1;exitY=0.5;exitDx=0;exitDy=0;entryDx=0;entryDy=0;" parent="1" source="iZH9orXoYxp4sXHzWfzY-33" edge="1">
          <mxGeometry relative="1" as="geometry">
            <mxPoint x="-1460" y="-120" as="sourcePoint" />
            <mxPoint x="-1460" y="-120" as="targetPoint" />
          </mxGeometry>
        </mxCell>
        <mxCell id="iZH9orXoYxp4sXHzWfzY-39" value="statoChat" style="ellipse;whiteSpace=wrap;html=1;align=center;" parent="1" vertex="1">
          <mxGeometry x="-750" y="-370" width="100" height="40" as="geometry" />
        </mxCell>
        <mxCell id="iZH9orXoYxp4sXHzWfzY-43" value="&lt;b&gt;id_chat&lt;/b&gt;" style="ellipse;whiteSpace=wrap;html=1;align=center;" parent="1" vertex="1">
          <mxGeometry x="-800" y="-430" width="100" height="40" as="geometry" />
        </mxCell>
        <mxCell id="iZH9orXoYxp4sXHzWfzY-47" value="mail" style="ellipse;whiteSpace=wrap;html=1;align=center;" parent="1" vertex="1">
          <mxGeometry x="-1260" y="-490" width="100" height="40" as="geometry" />
        </mxCell>
        <mxCell id="iZH9orXoYxp4sXHzWfzY-48" value="&lt;b&gt;id_utente&lt;/b&gt;" style="ellipse;whiteSpace=wrap;html=1;align=center;" parent="1" vertex="1">
          <mxGeometry x="-1270" y="-420" width="100" height="40" as="geometry" />
        </mxCell>
        <mxCell id="iZH9orXoYxp4sXHzWfzY-49" value="nome" style="ellipse;whiteSpace=wrap;html=1;align=center;" parent="1" vertex="1">
          <mxGeometry x="-1510" y="-470" width="100" height="40" as="geometry" />
        </mxCell>
        <mxCell id="iZH9orXoYxp4sXHzWfzY-50" value="cognome" style="ellipse;whiteSpace=wrap;html=1;align=center;" parent="1" vertex="1">
          <mxGeometry x="-1480" y="-300" width="100" height="40" as="geometry" />
        </mxCell>
        <mxCell id="iZH9orXoYxp4sXHzWfzY-52" value="username" style="ellipse;whiteSpace=wrap;html=1;align=center;" parent="1" vertex="1">
          <mxGeometry x="-1320" y="-530" width="100" height="40" as="geometry" />
        </mxCell>
        <mxCell id="iZH9orXoYxp4sXHzWfzY-53" value="ultimoAccesso" style="ellipse;whiteSpace=wrap;html=1;align=center;" parent="1" vertex="1">
          <mxGeometry x="-1600" y="-440" width="100" height="40" as="geometry" />
        </mxCell>
        <mxCell id="iZH9orXoYxp4sXHzWfzY-55" value="" style="endArrow=none;html=1;rounded=0;" parent="1" source="iZH9orXoYxp4sXHzWfzY-1" target="iZH9orXoYxp4sXHzWfzY-50" edge="1">
          <mxGeometry relative="1" as="geometry">
            <mxPoint x="-1570" y="-230" as="sourcePoint" />
            <mxPoint x="-1410" y="-230" as="targetPoint" />
          </mxGeometry>
        </mxCell>
        <mxCell id="iZH9orXoYxp4sXHzWfzY-56" value="" style="endArrow=none;html=1;rounded=0;" parent="1" source="iZH9orXoYxp4sXHzWfzY-1" target="iZH9orXoYxp4sXHzWfzY-53" edge="1">
          <mxGeometry relative="1" as="geometry">
            <mxPoint x="-1550" y="-290" as="sourcePoint" />
            <mxPoint x="-1390" y="-290" as="targetPoint" />
          </mxGeometry>
        </mxCell>
        <mxCell id="iZH9orXoYxp4sXHzWfzY-58" value="" style="endArrow=none;html=1;rounded=0;" parent="1" source="iZH9orXoYxp4sXHzWfzY-49" target="iZH9orXoYxp4sXHzWfzY-1" edge="1">
          <mxGeometry relative="1" as="geometry">
            <mxPoint x="-1540" y="-530" as="sourcePoint" />
            <mxPoint x="-1380" y="-530" as="targetPoint" />
          </mxGeometry>
        </mxCell>
        <mxCell id="iZH9orXoYxp4sXHzWfzY-59" value="" style="endArrow=none;html=1;rounded=0;" parent="1" source="iZH9orXoYxp4sXHzWfzY-62" target="iZH9orXoYxp4sXHzWfzY-48" edge="1">
          <mxGeometry relative="1" as="geometry">
            <mxPoint x="-1470" y="-540" as="sourcePoint" />
            <mxPoint x="-1310" y="-540" as="targetPoint" />
          </mxGeometry>
        </mxCell>
        <mxCell id="iZH9orXoYxp4sXHzWfzY-60" value="" style="endArrow=none;html=1;rounded=0;" parent="1" source="iZH9orXoYxp4sXHzWfzY-47" target="iZH9orXoYxp4sXHzWfzY-1" edge="1">
          <mxGeometry relative="1" as="geometry">
            <mxPoint x="-1270" y="-450" as="sourcePoint" />
            <mxPoint x="-1090" y="-550" as="targetPoint" />
          </mxGeometry>
        </mxCell>
        <mxCell id="iZH9orXoYxp4sXHzWfzY-61" value="" style="endArrow=none;html=1;rounded=0;" parent="1" source="iZH9orXoYxp4sXHzWfzY-52" target="iZH9orXoYxp4sXHzWfzY-1" edge="1">
          <mxGeometry relative="1" as="geometry">
            <mxPoint x="-1170" y="-480" as="sourcePoint" />
            <mxPoint x="-1010" y="-480" as="targetPoint" />
          </mxGeometry>
        </mxCell>
        <mxCell id="iZH9orXoYxp4sXHzWfzY-65" value="" style="endArrow=none;html=1;rounded=0;exitDx=0;exitDy=0;entryX=0.5;entryY=0;entryDx=0;entryDy=0;" parent="1" source="iZH9orXoYxp4sXHzWfzY-67" target="iZH9orXoYxp4sXHzWfzY-3" edge="1">
          <mxGeometry relative="1" as="geometry">
            <mxPoint x="-710" y="-430" as="sourcePoint" />
            <mxPoint x="-550" y="-430" as="targetPoint" />
          </mxGeometry>
        </mxCell>
        <mxCell id="iZH9orXoYxp4sXHzWfzY-66" value="" style="endArrow=none;html=1;rounded=0;exitX=1;exitY=0.5;exitDx=0;exitDy=0;entryX=0;entryY=0.5;entryDx=0;entryDy=0;" parent="1" source="iZH9orXoYxp4sXHzWfzY-3" target="iZH9orXoYxp4sXHzWfzY-39" edge="1">
          <mxGeometry relative="1" as="geometry">
            <mxPoint x="-730" y="-260" as="sourcePoint" />
            <mxPoint x="-570" y="-260" as="targetPoint" />
          </mxGeometry>
        </mxCell>
        <mxCell id="iZH9orXoYxp4sXHzWfzY-68" value="" style="endArrow=none;html=1;rounded=0;exitX=0.5;exitY=1;exitDx=0;exitDy=0;entryDx=0;entryDy=0;" parent="1" source="iZH9orXoYxp4sXHzWfzY-43" target="iZH9orXoYxp4sXHzWfzY-67" edge="1">
          <mxGeometry relative="1" as="geometry">
            <mxPoint x="-840" y="-420" as="sourcePoint" />
            <mxPoint x="-840" y="-370" as="targetPoint" />
          </mxGeometry>
        </mxCell>
        <mxCell id="iZH9orXoYxp4sXHzWfzY-67" value="" style="shape=waypoint;sketch=0;fillStyle=solid;size=6;pointerEvents=1;points=[];fillColor=none;resizable=0;rotatable=0;perimeter=centerPerimeter;snapToPoint=1;" parent="1" vertex="1">
          <mxGeometry x="-760" y="-400" width="20" height="20" as="geometry" />
        </mxCell>
        <mxCell id="iZH9orXoYxp4sXHzWfzY-69" value="&lt;b&gt;id_messaggio&lt;/b&gt;" style="ellipse;whiteSpace=wrap;html=1;align=center;" parent="1" vertex="1">
          <mxGeometry x="-1210" y="-70" width="100" height="40" as="geometry" />
        </mxCell>
        <mxCell id="iZH9orXoYxp4sXHzWfzY-70" value="contenuto" style="ellipse;whiteSpace=wrap;html=1;align=center;" parent="1" vertex="1">
          <mxGeometry x="-1130" y="-230" width="100" height="40" as="geometry" />
        </mxCell>
        <mxCell id="iZH9orXoYxp4sXHzWfzY-71" value="oraInvio" style="ellipse;whiteSpace=wrap;html=1;align=center;" parent="1" vertex="1">
          <mxGeometry x="-990" y="-110" width="100" height="40" as="geometry" />
        </mxCell>
        <mxCell id="iZH9orXoYxp4sXHzWfzY-72" value="letto" style="ellipse;whiteSpace=wrap;html=1;align=center;" parent="1" vertex="1">
          <mxGeometry x="-1060" y="-70" width="100" height="40" as="geometry" />
        </mxCell>
        <mxCell id="iZH9orXoYxp4sXHzWfzY-73" value="consegnato" style="ellipse;whiteSpace=wrap;html=1;align=center;" parent="1" vertex="1">
          <mxGeometry x="-1030" y="-200" width="100" height="40" as="geometry" />
        </mxCell>
        <mxCell id="iZH9orXoYxp4sXHzWfzY-76" value="autore" style="ellipse;whiteSpace=wrap;html=1;align=center;" parent="1" vertex="1">
          <mxGeometry x="-1230" y="-200" width="100" height="40" as="geometry" />
        </mxCell>
        <mxCell id="iZH9orXoYxp4sXHzWfzY-77" value="" style="endArrow=none;html=1;rounded=0;" parent="1" source="iZH9orXoYxp4sXHzWfzY-4" target="iZH9orXoYxp4sXHzWfzY-72" edge="1">
          <mxGeometry relative="1" as="geometry">
            <mxPoint x="-1340" y="10" as="sourcePoint" />
            <mxPoint x="-1180" y="10" as="targetPoint" />
          </mxGeometry>
        </mxCell>
        <mxCell id="iZH9orXoYxp4sXHzWfzY-79" value="" style="endArrow=none;html=1;rounded=0;exitDx=0;exitDy=0;entryX=0.5;entryY=0;entryDx=0;entryDy=0;" parent="1" source="iZH9orXoYxp4sXHzWfzY-78" target="iZH9orXoYxp4sXHzWfzY-69" edge="1">
          <mxGeometry relative="1" as="geometry">
            <mxPoint x="-1110" y="-70" as="sourcePoint" />
            <mxPoint x="-950" y="-70" as="targetPoint" />
          </mxGeometry>
        </mxCell>
        <mxCell id="iZH9orXoYxp4sXHzWfzY-80" value="" style="endArrow=none;html=1;rounded=0;exitX=0;exitY=1;exitDx=0;exitDy=0;entryDx=0;entryDy=0;" parent="1" source="iZH9orXoYxp4sXHzWfzY-4" target="iZH9orXoYxp4sXHzWfzY-78" edge="1">
          <mxGeometry relative="1" as="geometry">
            <mxPoint x="-1130" y="-100" as="sourcePoint" />
            <mxPoint x="-1190" y="-70" as="targetPoint" />
          </mxGeometry>
        </mxCell>
        <mxCell id="iZH9orXoYxp4sXHzWfzY-78" value="" style="shape=waypoint;sketch=0;fillStyle=solid;size=6;pointerEvents=1;points=[];fillColor=none;resizable=0;rotatable=0;perimeter=centerPerimeter;snapToPoint=1;" parent="1" vertex="1">
          <mxGeometry x="-1170" y="-80" width="20" height="20" as="geometry" />
        </mxCell>
        <mxCell id="iZH9orXoYxp4sXHzWfzY-81" value="" style="endArrow=none;html=1;rounded=0;" parent="1" source="iZH9orXoYxp4sXHzWfzY-4" target="iZH9orXoYxp4sXHzWfzY-70" edge="1">
          <mxGeometry relative="1" as="geometry">
            <mxPoint x="-1070" y="-50" as="sourcePoint" />
            <mxPoint x="-910" y="-50" as="targetPoint" />
          </mxGeometry>
        </mxCell>
        <mxCell id="iZH9orXoYxp4sXHzWfzY-82" value="" style="endArrow=none;html=1;rounded=0;" parent="1" source="iZH9orXoYxp4sXHzWfzY-4" target="iZH9orXoYxp4sXHzWfzY-71" edge="1">
          <mxGeometry relative="1" as="geometry">
            <mxPoint x="-920" y="-20" as="sourcePoint" />
            <mxPoint x="-760" y="-20" as="targetPoint" />
          </mxGeometry>
        </mxCell>
        <mxCell id="iZH9orXoYxp4sXHzWfzY-83" value="" style="endArrow=none;html=1;rounded=0;" parent="1" source="iZH9orXoYxp4sXHzWfzY-76" target="iZH9orXoYxp4sXHzWfzY-4" edge="1">
          <mxGeometry relative="1" as="geometry">
            <mxPoint x="-1220" y="-250" as="sourcePoint" />
            <mxPoint x="-1060" y="-250" as="targetPoint" />
          </mxGeometry>
        </mxCell>
        <mxCell id="iZH9orXoYxp4sXHzWfzY-85" value="" style="endArrow=none;html=1;rounded=0;" parent="1" source="iZH9orXoYxp4sXHzWfzY-73" target="iZH9orXoYxp4sXHzWfzY-4" edge="1">
          <mxGeometry relative="1" as="geometry">
            <mxPoint x="-1030" y="-270" as="sourcePoint" />
            <mxPoint x="-870" y="-270" as="targetPoint" />
          </mxGeometry>
        </mxCell>
        <mxCell id="UrRyoVrpCvmIYiV3Jeov-3" style="edgeStyle=orthogonalEdgeStyle;rounded=0;orthogonalLoop=1;jettySize=auto;html=1;" parent="1" source="UrRyoVrpCvmIYiV3Jeov-2" target="iZH9orXoYxp4sXHzWfzY-4" edge="1">
          <mxGeometry relative="1" as="geometry" />
        </mxCell>
        <mxCell id="UrRyoVrpCvmIYiV3Jeov-2" value="tipo: testo" style="whiteSpace=wrap;html=1;align=center;" parent="1" vertex="1">
          <mxGeometry x="-1020" y="-10" width="100" height="40" as="geometry" />
        </mxCell>
        <mxCell id="UrRyoVrpCvmIYiV3Jeov-5" style="edgeStyle=orthogonalEdgeStyle;rounded=0;orthogonalLoop=1;jettySize=auto;html=1;" parent="1" source="UrRyoVrpCvmIYiV3Jeov-4" target="iZH9orXoYxp4sXHzWfzY-4" edge="1">
          <mxGeometry relative="1" as="geometry" />
        </mxCell>
        <mxCell id="UrRyoVrpCvmIYiV3Jeov-4" value="tipo: immagine" style="whiteSpace=wrap;html=1;align=center;" parent="1" vertex="1">
          <mxGeometry x="-1240" y="-10" width="100" height="40" as="geometry" />
        </mxCell>
        <mxCell id="UrRyoVrpCvmIYiV3Jeov-9" style="edgeStyle=orthogonalEdgeStyle;rounded=0;orthogonalLoop=1;jettySize=auto;html=1;" parent="1" source="UrRyoVrpCvmIYiV3Jeov-6" target="iZH9orXoYxp4sXHzWfzY-4" edge="1">
          <mxGeometry relative="1" as="geometry" />
        </mxCell>
        <mxCell id="UrRyoVrpCvmIYiV3Jeov-6" value="tipo: vocale" style="whiteSpace=wrap;html=1;align=center;" parent="1" vertex="1">
          <mxGeometry x="-1020" y="70" width="100" height="40" as="geometry" />
        </mxCell>
        <mxCell id="UrRyoVrpCvmIYiV3Jeov-8" style="edgeStyle=orthogonalEdgeStyle;rounded=0;orthogonalLoop=1;jettySize=auto;html=1;" parent="1" source="UrRyoVrpCvmIYiV3Jeov-7" target="iZH9orXoYxp4sXHzWfzY-4" edge="1">
          <mxGeometry relative="1" as="geometry" />
        </mxCell>
        <mxCell id="UrRyoVrpCvmIYiV3Jeov-7" value="tipo: file" style="whiteSpace=wrap;html=1;align=center;" parent="1" vertex="1">
          <mxGeometry x="-1240" y="70" width="100" height="40" as="geometry" />
        </mxCell>
        <mxCell id="UrRyoVrpCvmIYiV3Jeov-14" style="edgeStyle=orthogonalEdgeStyle;rounded=0;orthogonalLoop=1;jettySize=auto;html=1;" parent="1" source="UrRyoVrpCvmIYiV3Jeov-11" target="iZH9orXoYxp4sXHzWfzY-1" edge="1">
          <mxGeometry relative="1" as="geometry" />
        </mxCell>
        <mxCell id="UrRyoVrpCvmIYiV3Jeov-11" value="stato: online" style="whiteSpace=wrap;html=1;align=center;" parent="1" vertex="1">
          <mxGeometry x="-1640" y="-390" width="100" height="40" as="geometry" />
        </mxCell>
        <mxCell id="UrRyoVrpCvmIYiV3Jeov-15" style="edgeStyle=orthogonalEdgeStyle;rounded=0;orthogonalLoop=1;jettySize=auto;html=1;" parent="1" source="UrRyoVrpCvmIYiV3Jeov-12" target="iZH9orXoYxp4sXHzWfzY-1" edge="1">
          <mxGeometry relative="1" as="geometry" />
        </mxCell>
        <mxCell id="UrRyoVrpCvmIYiV3Jeov-12" value="stato: offline" style="whiteSpace=wrap;html=1;align=center;" parent="1" vertex="1">
          <mxGeometry x="-1640" y="-350" width="100" height="40" as="geometry" />
        </mxCell>
        <mxCell id="UrRyoVrpCvmIYiV3Jeov-17" value="password" style="ellipse;whiteSpace=wrap;html=1;align=center;" parent="1" vertex="1">
          <mxGeometry x="-1280" y="-330" width="100" height="40" as="geometry" />
        </mxCell>
        <mxCell id="UrRyoVrpCvmIYiV3Jeov-19" value="salt" style="ellipse;whiteSpace=wrap;html=1;align=center;" parent="1" vertex="1">
          <mxGeometry x="-1340" y="-290" width="100" height="40" as="geometry" />
        </mxCell>
        <mxCell id="UrRyoVrpCvmIYiV3Jeov-20" value="remember_me_token" style="ellipse;whiteSpace=wrap;html=1;align=center;" parent="1" vertex="1">
          <mxGeometry x="-1650" y="-290" width="160" height="50" as="geometry" />
        </mxCell>
        <mxCell id="UrRyoVrpCvmIYiV3Jeov-21" value="" style="endArrow=none;html=1;rounded=0;" parent="1" source="UrRyoVrpCvmIYiV3Jeov-20" target="iZH9orXoYxp4sXHzWfzY-1" edge="1">
          <mxGeometry relative="1" as="geometry">
            <mxPoint x="-1540" y="-190" as="sourcePoint" />
            <mxPoint x="-1380" y="-190" as="targetPoint" />
          </mxGeometry>
        </mxCell>
        <mxCell id="UrRyoVrpCvmIYiV3Jeov-22" value="" style="endArrow=none;html=1;rounded=0;" parent="1" source="iZH9orXoYxp4sXHzWfzY-1" target="UrRyoVrpCvmIYiV3Jeov-19" edge="1">
          <mxGeometry relative="1" as="geometry">
            <mxPoint x="-1530" y="-200" as="sourcePoint" />
            <mxPoint x="-1370" y="-200" as="targetPoint" />
          </mxGeometry>
        </mxCell>
        <mxCell id="UrRyoVrpCvmIYiV3Jeov-23" value="" style="endArrow=none;html=1;rounded=0;" parent="1" source="iZH9orXoYxp4sXHzWfzY-1" target="UrRyoVrpCvmIYiV3Jeov-17" edge="1">
          <mxGeometry relative="1" as="geometry">
            <mxPoint x="-1140" y="-280" as="sourcePoint" />
            <mxPoint x="-980" y="-280" as="targetPoint" />
          </mxGeometry>
        </mxCell>
        <mxCell id="qlhVj5VX2fAHUGhtEVTx-1" value="Contatto" style="whiteSpace=wrap;html=1;align=center;" parent="1" vertex="1">
          <mxGeometry x="-1130" y="-570.09" width="100" height="40" as="geometry" />
        </mxCell>
        <mxCell id="qlhVj5VX2fAHUGhtEVTx-2" value="Possiede" style="shape=rhombus;perimeter=rhombusPerimeter;whiteSpace=wrap;html=1;align=center;" parent="1" vertex="1">
          <mxGeometry x="-1420" y="-580" width="120" height="60" as="geometry" />
        </mxCell>
        <mxCell id="qlhVj5VX2fAHUGhtEVTx-11" value="" style="endArrow=none;html=1;rounded=0;" parent="1" source="qlhVj5VX2fAHUGhtEVTx-2" target="iZH9orXoYxp4sXHzWfzY-1" edge="1">
          <mxGeometry relative="1" as="geometry">
            <mxPoint x="-1390" y="-480" as="sourcePoint" />
            <mxPoint x="-1230" y="-480" as="targetPoint" />
          </mxGeometry>
        </mxCell>
        <mxCell id="qlhVj5VX2fAHUGhtEVTx-12" value="(1,1)" style="resizable=0;html=1;whiteSpace=wrap;align=right;verticalAlign=bottom;" parent="qlhVj5VX2fAHUGhtEVTx-11" connectable="0" vertex="1">
          <mxGeometry x="1" relative="1" as="geometry" />
        </mxCell>
        <mxCell id="qlhVj5VX2fAHUGhtEVTx-13" value="" style="endArrow=none;html=1;rounded=0;" parent="1" source="qlhVj5VX2fAHUGhtEVTx-2" target="qlhVj5VX2fAHUGhtEVTx-1" edge="1">
          <mxGeometry relative="1" as="geometry">
            <mxPoint x="-1290" y="-550" as="sourcePoint" />
            <mxPoint x="-1130" y="-550" as="targetPoint" />
          </mxGeometry>
        </mxCell>
        <mxCell id="qlhVj5VX2fAHUGhtEVTx-14" value="(0,N)" style="resizable=0;html=1;whiteSpace=wrap;align=right;verticalAlign=bottom;" parent="qlhVj5VX2fAHUGhtEVTx-13" connectable="0" vertex="1">
          <mxGeometry x="1" relative="1" as="geometry" />
        </mxCell>
        <mxCell id="qlhVj5VX2fAHUGhtEVTx-23" value="&lt;b&gt;id_contatto&lt;/b&gt;" style="ellipse;whiteSpace=wrap;html=1;align=center;" parent="1" vertex="1">
          <mxGeometry x="-1130" y="-630" width="100" height="40" as="geometry" />
        </mxCell>
        <mxCell id="qlhVj5VX2fAHUGhtEVTx-24" value="" style="endArrow=none;html=1;rounded=0;" parent="1" source="qlhVj5VX2fAHUGhtEVTx-27" target="qlhVj5VX2fAHUGhtEVTx-1" edge="1">
          <mxGeometry relative="1" as="geometry">
            <mxPoint x="-1190" y="-600" as="sourcePoint" />
            <mxPoint x="-1030" y="-600" as="targetPoint" />
            <Array as="points" />
          </mxGeometry>
        </mxCell>
        <mxCell id="qlhVj5VX2fAHUGhtEVTx-28" value="" style="endArrow=none;html=1;rounded=0;" parent="1" source="qlhVj5VX2fAHUGhtEVTx-23" target="qlhVj5VX2fAHUGhtEVTx-27" edge="1">
          <mxGeometry relative="1" as="geometry">
            <mxPoint x="-1080" y="-630" as="sourcePoint" />
            <mxPoint x="-1080" y="-570" as="targetPoint" />
            <Array as="points" />
          </mxGeometry>
        </mxCell>
        <mxCell id="qlhVj5VX2fAHUGhtEVTx-27" value="" style="shape=waypoint;sketch=0;fillStyle=solid;size=6;pointerEvents=1;points=[];fillColor=none;resizable=0;rotatable=0;perimeter=centerPerimeter;snapToPoint=1;" parent="1" vertex="1">
          <mxGeometry x="-1090" y="-600" width="20" height="20" as="geometry" />
        </mxCell>
        <mxCell id="qlhVj5VX2fAHUGhtEVTx-29" value="nomeAssociato" style="ellipse;whiteSpace=wrap;html=1;align=center;" parent="1" vertex="1">
          <mxGeometry x="-990" y="-620" width="100" height="40" as="geometry" />
        </mxCell>
        <mxCell id="qlhVj5VX2fAHUGhtEVTx-30" value="" style="endArrow=none;html=1;rounded=0;" parent="1" source="qlhVj5VX2fAHUGhtEVTx-1" target="qlhVj5VX2fAHUGhtEVTx-29" edge="1">
          <mxGeometry relative="1" as="geometry">
            <mxPoint x="-1050" y="-500" as="sourcePoint" />
            <mxPoint x="-890" y="-500" as="targetPoint" />
          </mxGeometry>
        </mxCell>
        <mxCell id="qlhVj5VX2fAHUGhtEVTx-31" value="" style="endArrow=none;html=1;rounded=0;" parent="1" source="iZH9orXoYxp4sXHzWfzY-1" target="iZH9orXoYxp4sXHzWfzY-62" edge="1">
          <mxGeometry relative="1" as="geometry">
            <mxPoint x="-1310" y="-366" as="sourcePoint" />
            <mxPoint x="-1239" y="-388" as="targetPoint" />
          </mxGeometry>
        </mxCell>
        <mxCell id="iZH9orXoYxp4sXHzWfzY-62" value="" style="shape=waypoint;sketch=0;fillStyle=solid;size=6;pointerEvents=1;points=[];fillColor=none;resizable=0;rotatable=0;perimeter=centerPerimeter;snapToPoint=1;" parent="1" vertex="1">
          <mxGeometry x="-1240" y="-390" width="20" height="20" as="geometry" />
        </mxCell>
        <mxCell id="BcjiPijLG0TLCFcDTyvb-1" value="Condivide&lt;br&gt;una" style="shape=rhombus;perimeter=rhombusPerimeter;whiteSpace=wrap;html=1;align=center;" vertex="1" parent="1">
          <mxGeometry x="-900" y="-580" width="120" height="60" as="geometry" />
        </mxCell>
        <mxCell id="BcjiPijLG0TLCFcDTyvb-2" value="" style="endArrow=none;html=1;rounded=0;" edge="1" parent="1" source="BcjiPijLG0TLCFcDTyvb-1" target="qlhVj5VX2fAHUGhtEVTx-1">
          <mxGeometry relative="1" as="geometry">
            <mxPoint x="-930" y="-460" as="sourcePoint" />
            <mxPoint x="-770" y="-460" as="targetPoint" />
          </mxGeometry>
        </mxCell>
        <mxCell id="BcjiPijLG0TLCFcDTyvb-3" value="(1,1)" style="resizable=0;html=1;whiteSpace=wrap;align=right;verticalAlign=bottom;" connectable="0" vertex="1" parent="BcjiPijLG0TLCFcDTyvb-2">
          <mxGeometry x="1" relative="1" as="geometry">
            <mxPoint x="30" y="20" as="offset" />
          </mxGeometry>
        </mxCell>
        <mxCell id="BcjiPijLG0TLCFcDTyvb-4" value="" style="endArrow=none;html=1;rounded=0;" edge="1" parent="1" source="BcjiPijLG0TLCFcDTyvb-1" target="iZH9orXoYxp4sXHzWfzY-3">
          <mxGeometry relative="1" as="geometry">
            <mxPoint x="-940" y="-460" as="sourcePoint" />
            <mxPoint x="-780" y="-460" as="targetPoint" />
          </mxGeometry>
        </mxCell>
        <mxCell id="BcjiPijLG0TLCFcDTyvb-5" value="(0,1)" style="resizable=0;html=1;whiteSpace=wrap;align=right;verticalAlign=bottom;" connectable="0" vertex="1" parent="BcjiPijLG0TLCFcDTyvb-4">
          <mxGeometry x="1" relative="1" as="geometry" />
        </mxCell>
      </root>
    </mxGraphModel>
  </diagram>
</mxfile>
